PathFileType	4	(X/Y/Z)	/Users/mathieubourgeois/Desktop/Analyse/Traitement/Sujet_03/Data/Transformed_Sujet_03_velo_60.trc
DataRate	CameraRate	NumFrames	NumMarkers	Units	OrigDataRate	OrigDataStartFrame	OrigNumFrames
120.000000	120.000000	4	36	mm	120.000000	1390	1854
Frame#	Time	RFHD			LFHD			RBHD			LBHD			C7			CLAV			RSHO			LSHO			STRN			T10			RBWT			LBWT			RFWT			LFWT			RKNI			LKNI			RKNE			LKNE			LANI			RANI			LANE			RANE			LTOE			RTOE			LHEE			RHEE			RHUM			LHUM			RRAD			LRAD			RWRA			RWRB			LWRA			LWRB			LCAR			RCAR			
		X1	Y1	Z1	X2	Y2	Z2	X3	Y3	Z3	X4	Y4	Z4	X5	Y5	Z5	X6	Y6	Z6	X7	Y7	Z7	X8	Y8	Z8	X9	Y9	Z9	X10	Y10	Z10	X11	Y11	Z11	X12	Y12	Z12	X13	Y13	Z13	X14	Y14	Z14	X15	Y15	Z15	X16	Y16	Z16	X17	Y17	Z17	X18	Y18	Z18	X19	Y19	Z19	X20	Y20	Z20	X21	Y21	Z21	X22	Y22	Z22	X23	Y23	Z23	X24	Y24	Z24	X25	Y25	Z25	X26	Y26	Z26	X27	Y27	Z27	X28	Y28	Z28	X29	Y29	Z29	X30	Y30	Z30	X31	Y31	Z31	X32	Y32	Z32	X33	Y33	Z33	X34	Y34	Z34	X35	Y35	Z35	X36	Y36	Z36	

1391	11.58333333333333	149.9326171875	1560.51318359375	107.8773880004882	132.1974487304688	1557.42919921875	-44.54122161865242	40.77413177490233	1634.830688476562	122.5839233398437	15.30439186096192	1648.262817382812	-24.33035278320322	-111.4059219360352	1557.758666992188	48.56171035766591	-74.42920684814453	1403.75244140625	44.62255859374991	-52.76345825195315	1479.02587890625	223.2523040771484	-77.8766632080078	1505.825439453125	-140.5074462890626	-173.0869750976562	1267.03369140625	42.64982223510732	-329.9472961425781	1459.53076171875	48.97662353515611	-519.8613891601562	1258.240844726562	124.6623535156249	-525.44140625	1258.723022460938	0.4421212077139394	-365.7898864746094	1189.271484375	178.9402770996092	-373.051513671875	1180.919067382812	-64.16766357421886	-92.02248382568361	762.57861328125	128.6128845214843	-95.3964157104492	789.8108520507812	-77.61421203613287	-109.1794662475586	808.3616333007812	242.9633789062499	-101.8494338989258	833.73974609375	-187.040023803711	-391.8425598144531	562.2826538085938	-46.90945816040048	-145.9513702392578	394.1849365234375	122.205825805664	-423.695068359375	547.1714477539062	-131.4193725585938	-174.5418395996094	373.7913818359375	209.121841430664	-302.8644714355469	379.2848205566406	-82.90616607666023	14.6026620864868	272.0337829589844	147.0146331787109	-489.8170776367188	571.4046020507812	-86.65881347656259	-243.1256561279297	352.969482421875	162.8107757568359	32.03140640258786	1189.110595703125	224.5317382812499	5.190349102020281	1195.177734375	-147.2984619140626	83.43382263183591	1212.199462890625	282.3216247558593	56.27190780639651	1229.464111328125	-201.6415557861329	294.964599609375	1047.677124023438	210.8840179443359	271.9419555664062	1034.522705078125	289.1385192871094	246.5046691894532	1059.521484375	-125.8195495605469	223.1319122314453	1043.653442382812	-200.6959075927735	320.7374572753906	1032.890502929688	-222.7057800292969	372.7126159667968	1012.551147460938	305.3034973144531	
1392	11.59166666666667	150.1849060058594	1560.6796875	107.0913772583007	132.3174438476562	1557.453735351562	-45.30620956420906	40.99548721313475	1635.015869140625	121.8222351074218	15.39366054534912	1648.268676757812	-25.0760326385499	-111.2389602661133	1557.80908203125	48.00209808349599	-74.22037506103516	1403.8525390625	44.10588455200186	-52.4908142089844	1479.28662109375	222.6616058349609	-77.89701080322264	1505.832641601562	-141.061492919922	-172.762939453125	1267.122802734375	42.25687408447256	-329.7509460449219	1459.536743164062	48.7667083740233	-519.5531005859375	1258.190673828125	124.8931274414061	-525.2733154296875	1258.832275390625	0.6441872715948599	-365.5854187011719	1188.998168945312	178.9722595214842	-372.8889770507812	1181.162841796875	-64.10515594482433	-97.85930633544923	755.6626586914062	128.4370727539062	-87.62351226806639	798.7989501953125	-78.09951019287115	-114.8281936645508	801.4136352539062	242.7371063232421	-97.50185394287107	840.2389526367188	-187.4336395263672	-388.1328735351562	570.69921875	-46.69189071655282	-149.2482604980469	386.2477722167969	122.2184143066406	-420.0615539550781	555.552001953125	-131.1113586425782	-178.098876953125	365.9162902832031	209.1546936035156	-298.8890991210938	388.0352172851562	-82.72473144531257	10.80877971649168	263.3357238769531	146.9145355224609	-486.3125	579.7581787109375	-86.31827545166024	-246.543197631836	345.3227233886719	162.8880157470703	32.16642379760739	1189.24951171875	224.314468383789	5.212285518646258	1195.159912109375	-147.5283966064454	83.58821105957028	1212.381591796875	282.0966186523437	56.31692886352541	1229.393920898438	-201.8933563232423	295.0002746582031	1047.656005859375	210.835220336914	271.9488525390624	1034.55859375	289.1038513183594	246.5177001953125	1059.5498046875	-125.8778076171875	224.9752502441407	1043.564575195312	-201.8092041015625	320.7713012695312	1032.853881835938	-222.7143859863282	372.7128295898437	1012.567138671875	305.3034973144531	
1393	11.6	150.373046875	1560.875610351562	106.2908859252929	132.3866271972656	1557.464965820312	-46.08235931396492	41.21736907958983	1635.188598632812	121.045928955078	15.49925327301026	1648.278442382812	-25.84876060485849	-111.0484161376953	1557.885986328125	47.40355682373036	-73.97761535644531	1403.90966796875	43.59776687622061	-52.15703201293948	1479.559814453125	222.0527954101562	-77.87136077880858	1505.798706054688	-141.5577392578126	-172.459228515625	1267.161010742188	41.90097808837881	-329.5696105957031	1459.5322265625	48.56438446044908	-519.2372436523438	1258.133056640625	125.08194732666	-525.1072387695312	1258.955688476562	0.8246377110479849	-365.3831481933594	1188.686645507812	179.0001831054686	-372.7579040527344	1181.371337890625	-64.04487609863293	-101.6035308837891	748.8196411132812	127.9280242919921	-83.82681274414061	805.2332763671875	-78.01000976562506	-120.5642471313477	794.72216796875	242.4607391357421	-93.22442626953122	846.8689575195312	-187.7074127197266	-384.128662109375	578.85400390625	-46.41182327270516	-153.1427917480469	378.6058349609375	122.1741867065429	-416.1082763671875	563.6666259765625	-130.8015594482423	-181.7087097167969	358.5326538085938	208.9501190185546	-294.43798828125	396.5820007324219	-82.63835144042976	6.527435302734357	254.7711639404297	146.8166046142578	-482.5598449707031	587.7882690429688	-85.88599395751963	-250.3434448242188	338.0503540039062	162.9427795410156	32.27405929565427	1189.41064453125	224.0599670410155	5.193672180175799	1195.143432617188	-147.752670288086	83.69210052490232	1212.5830078125	281.8717956542968	56.29602813720705	1229.308837890625	-202.1773376464845	295.0109252929688	1047.63037109375	210.7549438476562	271.9567871093749	1034.61669921875	289.0552062988281	246.5127563476563	1059.564086914062	-125.9701385498047	224.9793548583985	1043.517944335938	-201.9076538085938	320.7920227050781	1032.821899414062	-222.7857818603516	372.7046508789062	1012.619140625	305.2736206054688	
1394	11.60833333333333	150.5842590332031	1561.038818359375	105.5109405517577	132.4619293212891	1557.465087890625	-46.86139678955086	41.44826889038085	1635.347045898438	120.269058227539	15.56321716308594	1648.297973632812	-26.60200691223154	-110.8981094360352	1557.939208984375	46.81429290771474	-73.83329772949219	1403.9775390625	43.12688446044913	-51.90223312377933	1479.82421875	221.4601745605468	-77.89638519287108	1505.76318359375	-142.1345367431641	-172.1773223876953	1267.13720703125	41.56824111938467	-329.4100341796875	1459.521240234375	48.35128402709947	-518.9664306640625	1258.06689453125	125.2334747314452	-525.0040893554688	1259.05224609375	0.9992174506186026	-365.175537109375	1188.377807617188	179.0087432861327	-372.6274108886719	1181.603393554688	-64.03400421142589	-107.7582244873047	741.6527099609375	127.4332733154296	-79.18664550781249	812.2088012695312	-78.11823272705084	-126.3800125122071	788.2944946289062	242.1628265380859	-89.01222991943357	853.5563354492188	-187.8659057617188	-379.8502807617188	586.6475830078125	-46.11477279663094	-157.1363983154297	371.2883605957031	122.0733032226562	-411.8951721191406	571.375	-130.478973388672	-185.4591827392578	350.9449768066406	207.9501342773437	-290.2542419433594	404.9080505371094	-82.2319412231446	1.774074673652631	246.3954010009766	146.7244262695312	-478.5853576660156	595.265380859375	-85.47618865966807	-254.5391845703125	331.2259216308594	162.9149322509765	32.35470962524411	1189.573974609375	223.8833923339843	5.186658859252947	1195.107543945312	-147.9669342041016	83.80364227294919	1212.785034179688	281.6350097656249	56.25764083862307	1229.23486328125	-202.4998016357423	295.02587890625	1047.6181640625	210.6509399414062	271.9634094238281	1034.673461914062	288.9645385742188	246.4834442138672	1059.560424804688	-126.082878112793	224.9760437011719	1043.46484375	-201.9901733398438	320.7864990234375	1032.77099609375	-222.8850250244141	372.7146911621093	1012.670532226562	305.2066955566406	
